<?xml version="1.0" encoding="UTF-8"?>
<svg id="Layer_1" xmlns="http://www.w3.org/2000/svg" width="368.59" height="266.96" viewBox="0 0 368.59 266.96">
  <defs>
    <style>
      .cls-1 {
        fill: none;
        stroke: #af9283;
        stroke-width: 4px;
      }
    </style>
  </defs>
  <path class="cls-1" d="M255.84,202.79c-57.6,40-123.33,15.67-149-1.5h-.5c-.33-.67-1.1-2.4-1.5-4-.27-1.09-2.71-3.46-5.03-5.5M255.84,202.79c-22.5,14.5-83.3,34.2-146.5-3M255.84,202.79c-55.6,37.6-120.83,18-146.5,3.5v-6.5M255.84,202.79l-.5-.5M109.34,199.79l-3.5-3-4-4.5-2.03-.5M295.34,196.29l-5.5,4c-2-5.2-24.17-1.17-35,1.5l.5.5M295.34,196.29c5.33.83,14.7,4.2,9.5,11-6.33,5-26.1,15.9-54.5,19.5-25.17,4.33-86.4,10.4-130,0-39-7-98.9-24.1-26.5-36.5l3-1M295.34,196.29c-9.6-2.8-21.33-8.17-26-10.5M96.84,189.29c.8.64,1.88,1.53,2.97,2.5M96.84,189.29l-8.26-11.5M82.84,169.79c-45.33,4.33-120,23-56,63,36.83,20.33,144,51.9,278,15.5,50.83-18.17,117.7-59.4-21.5-79M82.84,169.79c-30-50.4-31.17-110-28-133.5M82.84,169.79l5.74,8M283.34,169.29l12.5-27.5M283.34,169.29l-7,8.25M255.34,202.29l14-16.5M269.34,185.79l7-8.25M289.84,196.79l-19.5-8-7.5,9,16-3,2,1h1.5l-11-4-2,1-1.5,2,3.5-.5M295.84,141.79c29.17-3.17,83.6-20.2,68-63-4.33-9.83-20.2-26.8-49-16M295.84,141.79c1.53-2.63,2.99-5.86,4.36-9.5M314.84,62.79c-.34,2.99-.79,6.55-1.35,10.5M314.84,62.79l-1.35,10.5M300.2,132.29c.56-1.48,1.11-3.04,1.64-4.65M300.2,132.29c1.25-.22,2.76-.52,4.41-.88M301.84,127.64l23-3.35c.33-1.5.4-3.6-2,0-1.94,2.91-11.27,5.58-18.23,7.12M301.84,127.64c.36-1.09.72-2.21,1.07-3.35M302.9,124.29l1.71,7.12M302.9,124.29c4.13-13.49,7.37-30.18,9.54-44M302.9,124.29c8.28-.29,21.31-2.7,30.93-9.21M312.44,80.29c25.68-5.6,33.3,6,33.9,12.5,0,6.01-1.82,10.96-4.77,15M312.44,80.29c.38-2.43.73-4.78,1.05-7M313.49,73.29c5.28-1,16.15-2.7,17.35-1.5M313.49,73.29v-37M341.57,107.79c3.01,3.17,5.9,8.9-6.61,6.5M341.57,107.79c-.83,1.13-1.74,2.19-2.73,3.19M334.96,114.29c1.38-1.01,2.68-2.11,3.87-3.31M334.96,114.29c-.37.27-.75.53-1.13.79M338.84,110.97c2.33,2.13,4.6,5.94-5,4.1M313.49,36.28c-26.28,29.6-99.38,34-132.65,32.5-28.67,1.67-94-2.5-126-32.5M313.49,36.28c.5-3.01-.44-6.68-3.67-10.5M54.84,36.28c-1.23-2.84-.57-6.56,3.58-10.5M64.84,87.29c8.83,37.5,35.3,113,70.5,115M309.82,25.78C299.47,13.53,265.63-.16,180.84,2.29c-79.57,2.29-112,13.59-122.42,23.5M309.82,25.78c-1.47,1.92-3.66,4.13-6.61,6.5M58.41,25.78c1.18,2.11,2.66,4.11,4.4,6M62.81,31.78c6.84-5.33,23.32-15.5,34.52-13.5M62.81,31.78c7.02,7.62,18.34,13.5,31.52,17.98M146.34,10.78c8-1,25.4-2.8,31-2M188.84,8.79c10-.17,30.2,0,31,2M94.34,49.77c28.2,9.59,64.96,12.81,86.5,13.02,41.77,0,72.39-6.66,93.5-14.78M94.34,49.77c22.67-9.02,90.4-21.99,180-1.76M274.34,48c13.22-5.09,22.71-10.75,28.88-15.72M276.34,177.54c13.83.08,42.5,1.65,46.5,7.25M88.58,177.79c-16.75.33-51.14,3.1-54.74,11.5M57.34,215.29c13,8.83,48.6,26.1,87,24.5M230.34,237.29c17.33-2,54-7.5,62-13.5M266.84,17.28c10.75,2,33.08,7.8,36.38,15M298.84,64.79c.17,19.67-6.4,70.6-34,117M250.34,196.79l8-8.5M102.84,196.29l-16.5,4.5c-.5.67-1.1,1.9.5,1.5,1.6-.4,12-2.83,17-4l-1-2Z"/>
</svg>